# xmcd CD database file
#
# Track frame offsets:
#	150
#	18424
#	33745
#	56574
#	77079
#	99437
#	122993
#	144579
#	159061
#	174341
#	200518
#	219627
#	239820
#	256117
#	270738
#	289114
#	309971
#
# Disc length: 4403 seconds
#
# Revision: 1
# Processed by: cddbd v1.5.2PL0 Copyright (c) Steve Scherf et al.
# Submitted via: CDex 1.70
#
DISCID=f0113111
DTITLE=10cc - Ten Out Of 10 +7
DYEAR=1900
DGENRE=Blues
TTITLE0=Don't Ask
TTITLE1=Overdraft In Overdrive
TTITLE2=Don't Turn Me Away
TTITLE3=Memories
TTITLE4=Notell Hotel
TTITLE5=Les Nouveaux Riches
TTITLE6=Action Man In A Motown Suit
TTITLE7=Listen With Your Eyes
TTITLE8=Lying Here With You
TTITLE9=	Survivor
TTITLE10=The Power Of Love
TTITLE11=Memories (Us Mix)
TTITLE12=We've Heard It All Before
TTITLE13=Tomorrow's World Today
TTITLE14=Runaway
TTITLE15=Les Nouveaux Riches (Single Mix)
TTITLE16=You're Coming Home Again
EXTD=
EXTT0=
EXTT1=
EXTT2=
EXTT3=
EXTT4=
EXTT5=
EXTT6=
EXTT7=
EXTT8=
EXTT9=
EXTT10=
EXTT11=
EXTT12=
EXTT13=
EXTT14=
EXTT15=
EXTT16=
PLAYORDER=
